<svg version="1.1" xmlns="http://www.w3.org/2000/svg" xmlns:xlink="http://www.w3.org/1999/xlink" width="24" height="24" viewBox="0,0,256,256"><g fill="#cbcbcb" fill-rule="evenodd" stroke="none" stroke-width="1" stroke-linecap="butt" stroke-linejoin="miter" stroke-miterlimit="10" stroke-dasharray="" stroke-dashoffset="0" font-family="none" font-weight="none" font-size="none" text-anchor="none" style="mix-blend-mode: normal"><g transform="scale(10.66667,10.66667)"><path d="M12,4c0.552,0 1,-0.448 1,-1v-2c0,-0.552 -0.448,-1 -1,-1c-0.552,0 -1,0.448 -1,1v2c0,0.552 0.448,1 1,1zM12,16c-2.206,0 -4,-1.794 -4,-4c0,-2.206 1.794,-4 4,-4c2.206,0 4,1.794 4,4c0,2.206 -1.794,4 -4,4zM12,6c-3.309,0 -6,2.691 -6,6c0,3.309 2.691,6 6,6c3.309,0 6,-2.691 6,-6c0,-3.309 -2.691,-6 -6,-6zM11,21c0,-0.553 0.448,-1 1,-1c0.552,0 1,0.447 1,1v2c0,0.553 -0.448,1 -1,1c-0.552,0 -1,-0.447 -1,-1zM4.93298,6.34722c0.195,0.195 0.451,0.293 0.707,0.293c0.256,0 0.512,-0.098 0.707,-0.293c0.391,-0.391 0.391,-1.023 0,-1.414l-1.42,-1.42c-0.39,-0.391 -1.023,-0.391 -1.414,0c-0.391,0.391 -0.391,1.023 0,1.414zM17.6536,19.0674c-0.391,-0.391 -0.391,-1.023 0,-1.414c0.391,-0.391 1.023,-0.391 1.414,0l1.42,1.42c0.391,0.391 0.391,1.023 0,1.414c-0.195,0.195 -0.451,0.293 -0.707,0.293c-0.256,0 -0.512,-0.098 -0.707,-0.293zM4,12c0,-0.552 -0.448,-1 -1,-1h-2c-0.552,0 -1,0.448 -1,1c0,0.552 0.448,1 1,1h2c0.552,0 1,-0.448 1,-1zM21,11h2c0.553,0 1,0.448 1,1c0,0.552 -0.447,1 -1,1h-2c-0.553,0 -1,-0.448 -1,-1c0,-0.552 0.447,-1 1,-1zM4.93298,17.6534l-1.42,1.42c-0.391,0.391 -0.391,1.023 0,1.414c0.195,0.195 0.451,0.293 0.707,0.293c0.256,0 0.512,-0.098 0.707,-0.293l1.42,-1.42c0.391,-0.391 0.391,-1.023 0,-1.414c-0.391,-0.391 -1.023,-0.391 -1.414,0zM19.0676,6.34722c-0.195,0.195 -0.451,0.293 -0.707,0.293c-0.256,0 -0.512,-0.098 -0.707,-0.293c-0.391,-0.391 -0.391,-1.023 0,-1.414l1.42,-1.42c0.391,-0.391 1.023,-0.391 1.414,0c0.391,0.391 0.391,1.023 0,1.414z"></path></g></g></svg>